<svg width="134" height="32" viewBox="0 0 134 32" fill="none" xmlns="http://www.w3.org/2000/svg">
<g clip-path="url(#clip0_110_4714)">
<path d="M5.32805 1.6001L2.39404 12.9035H13.9566L8.73693 30.4001L36.3013 12.9035H25.1433L28.193 1.6001H5.32805Z" fill="url(#paint0_linear_110_4714)"/>
<path d="M28.1737 1.6001H32.8877L29.9899 12.9035H25.124L28.1737 1.6001Z" fill="white"/>
<path d="M36.298 12.8965H45.4877L8.72974 30.3929L36.298 12.8965Z" fill="white"/>
<path d="M52.1972 23.6365V20.5005L62.4692 4.69247H52.2932V1.23647H67.2372V4.37247L56.9012 20.1485H67.3012V23.6365H52.1972ZM70.7129 23.6365V1.23647H85.0809V4.72447H74.8089V10.0685H83.6089V13.5565H74.8089V20.1485H85.0809V23.6365H70.7129ZM97.3217 24.0205C95.2737 24.0205 93.599 23.6151 92.2977 22.8045C91.0177 21.9725 90.0683 20.8738 89.4497 19.5085C88.8523 18.1431 88.5537 16.6605 88.5537 15.0605V1.23647H92.6497V15.0925C92.6497 16.8418 93.0657 18.1431 93.8977 18.9965C94.751 19.8498 95.9243 20.2765 97.4177 20.2765C98.8897 20.2765 100.052 19.8498 100.906 18.9965C101.759 18.1431 102.186 16.8418 102.186 15.0925V1.23647H106.282V15.0605C106.282 16.7458 106.015 18.1645 105.482 19.3165C104.948 20.4685 104.234 21.3858 103.338 22.0685C102.463 22.7511 101.492 23.2525 100.426 23.5725C99.3803 23.8711 98.3457 24.0205 97.3217 24.0205ZM117.861 24.0205C116.304 24.0205 114.885 23.7538 113.605 23.2205C112.346 22.6871 111.344 21.8978 110.597 20.8525C109.85 19.7858 109.456 18.4631 109.413 16.8845H113.733C113.776 17.9298 114.149 18.8045 114.853 19.5085C115.578 20.2125 116.57 20.5645 117.829 20.5645C118.917 20.5645 119.781 20.3085 120.421 19.7965C121.061 19.2845 121.381 18.5911 121.381 17.7165C121.381 17.2685 121.306 16.8738 121.157 16.5325C121.029 16.1911 120.773 15.8711 120.389 15.5725C120.005 15.2738 119.461 14.9858 118.757 14.7085C118.074 14.4098 117.168 14.0791 116.037 13.7165C114.565 13.2258 113.381 12.6605 112.485 12.0205C111.589 11.3805 110.938 10.6658 110.533 9.87647C110.149 9.06581 109.957 8.19114 109.957 7.25247C109.957 5.84447 110.288 4.67114 110.949 3.73247C111.632 2.77247 112.538 2.05781 113.669 1.58847C114.821 1.09781 116.09 0.852474 117.477 0.852474C118.885 0.852474 120.154 1.09781 121.285 1.58847C122.437 2.07914 123.365 2.80447 124.069 3.76447C124.773 4.72447 125.136 5.90847 125.157 7.31647H120.773C120.752 6.50581 120.432 5.80181 119.813 5.20447C119.216 4.60714 118.384 4.30847 117.317 4.30847C116.464 4.30847 115.738 4.53247 115.141 4.98047C114.544 5.42847 114.245 6.08981 114.245 6.96447C114.245 7.60447 114.48 8.14847 114.949 8.59647C115.44 9.04447 116.09 9.43914 116.901 9.78047C117.733 10.1005 118.65 10.4418 119.653 10.8045C120.208 10.9965 120.826 11.2418 121.509 11.5405C122.213 11.8391 122.885 12.2445 123.525 12.7565C124.165 13.2471 124.688 13.8765 125.093 14.6445C125.52 15.3911 125.733 16.3191 125.733 17.4285C125.733 18.7938 125.381 19.9671 124.677 20.9485C123.994 21.9298 123.056 22.6871 121.861 23.2205C120.688 23.7538 119.354 24.0205 117.861 24.0205Z" fill="white"/>
</g>
<defs>
<linearGradient id="paint0_linear_110_4714" x1="19.3476" y1="1.6001" x2="19.3476" y2="24.7709" gradientUnits="userSpaceOnUse">
<stop stop-color="#FFEB83"/>
<stop offset="0.247213" stop-color="#FFBF83"/>
<stop offset="0.682213" stop-color="#E677E9"/>
<stop offset="1" stop-color="#B283FF"/>
</linearGradient>
<clipPath id="clip0_110_4714">
<rect width="134" height="32" fill="white"/>
</clipPath>
</defs>
</svg>
